# xmcd CD database file
#
# Track frame offsets:
#	150
#	16425
#	33867
#	51990
#	65190
#	79440
#	96305
#	113382
#	129632
#	144652
#	161650
#	174725
#	191997
#	209467
#	227672
#	245185
#	257787
#	274980
#
# Disc length: 3861 seconds
#
# Revision: 0
# Processed by: cddbd v1.5.1PL2 Copyright (c) Steve Scherf et al.
# Submitted via: CDex 1.51
#
DISCID=190f1312
DTITLE=Various Artist - Women in Country IV
DYEAR=1999
DGENRE=Country
TTITLE0=No Place That Far/Sara Evans
TTITLE1=Dark End of the Street/Eva Cassidy
TTITLE2=You'll Never Know/Mindy McCready
TTITLE3=Can't get Enough/Patty Loveless
TTITLE4=High Powered Love/Emmylou Harris
TTITLE5=Never Again, Again/LeAnn Womack
TTITLE6=What's the Matter with You Baby/Claudia Church
TTITLE7=I'll Give You Something to Live/Reba McEntire
TTITLE8=Little Goodbyes/SHe DAISY
TTITLE9=Planet of Love/Mandy Barnett
TTITLE10=When You Are Old/Gretchen Peters
TTITLE11=When my Morning Comes Around/Iris Dement
TTITLE12=29 Nights/Danni Leigh
TTITLE13=Kiss Me Now/Lila McCann
TTITLE14=26 Cents/The Wilkinsons
TTITLE15=Ain't Enough Roses/Lisa Brokop
TTITLE16=Every Time I Cry/Terri Clark
TTITLE17=From the Inside Out/Linda Davis
EXTD=YEAR: 1999
EXTT0=
EXTT1=
EXTT2=
EXTT3=
EXTT4=
EXTT5=
EXTT6=
EXTT7=
EXTT8=
EXTT9=
EXTT10=
EXTT11=
EXTT12=
EXTT13=
EXTT14=
EXTT15=
EXTT16=
EXTT17=
PLAYORDER=
